<svg width="18" height="18" viewBox="0 0 18 18" fill="none" xmlns="http://www.w3.org/2000/svg">
<path d="M16.1267 18H1.79186C0.814479 18 0 17.1837 0 16.2041V3.0204C0 2.04081 0.651584 1.22449 1.50679 1.22449H2.40271V2.40816H1.50679C1.38462 2.40816 1.22172 2.65306 1.22172 3.0204V16.2041C1.22172 16.5306 1.50679 16.8163 1.83258 16.8163H16.1674C16.4932 16.8163 16.7783 16.5306 16.7783 16.2041V3.0204C16.7783 2.65306 16.5747 2.40816 16.4932 2.40816H15.5973V1.22449H16.4932C17.3077 1.22449 18 2.04081 18 3.0204V16.2041C17.9186 17.1837 17.1041 18 16.1267 18Z" fill="#A7A7A7"/>
<path d="M4.19289 3.63265C3.8671 3.63265 3.58203 3.34694 3.58203 3.02041V0.612245C3.58203 0.285714 3.8671 0 4.19289 0C4.51868 0 4.80375 0.285714 4.80375 0.612245V3.02041C4.76303 3.34694 4.51868 3.63265 4.19289 3.63265ZM13.7223 3.63265C13.3965 3.63265 13.1114 3.34694 13.1114 3.02041V0.612245C13.1114 0.285714 13.3965 0 13.7223 0C14.0481 0 14.3332 0.285714 14.3332 0.612245V3.02041C14.3332 3.34694 14.0481 3.63265 13.7223 3.63265Z" fill="#A7A7A7"/>
<path d="M5.98438 1.22449H11.9301V2.44898H5.98438V1.22449Z" fill="#A7A7A7"/>
<path d="M1 5H17V6H1V5Z" fill="#A7A7A7"/>
<path d="M14.3359 7.22449H15.5169V8.40816H14.3359V7.22449Z" fill="#A7A7A7"/>
<path d="M11.9336 7.22452H13.1553V8.40819H11.9336V7.22452Z" fill="#A7A7A7"/>
<path d="M9.57031 7.22449H10.7513V8.40816H9.57031V7.22449Z" fill="#A7A7A7"/>
<path d="M7.16797 7.22452H8.34896V8.40819H7.16797V7.22452Z" fill="#A7A7A7"/>
<path d="M4.76562 7.22452H5.98734V8.40819H4.76562V7.22452Z" fill="#A7A7A7"/>
<path d="M14.3359 9.63269H15.5169V10.8164H14.3359V9.63269Z" fill="#A7A7A7"/>
<path d="M11.9336 9.63266H13.1553V10.8163H11.9336V9.63266Z" fill="#A7A7A7"/>
<path d="M9.57031 9.63269H10.7513V10.8164H9.57031V9.63269Z" fill="#A7A7A7"/>
<path d="M7.16797 9.63266H8.34896V10.8163H7.16797V9.63266Z" fill="#A7A7A7"/>
<path d="M4.76562 9.63266H5.98734V10.8163H4.76562V9.63266Z" fill="#A7A7A7"/>
<path d="M2.40234 9.63269H3.58334V10.8164H2.40234V9.63269Z" fill="#A7A7A7"/>
<path d="M14.3359 12H15.5169V13.2245H14.3359V12Z" fill="#A7A7A7"/>
<path d="M11.9336 12H13.1553V13.2245H11.9336V12Z" fill="#A7A7A7"/>
<path d="M9.57031 12H10.7513V13.2245H9.57031V12Z" fill="#A7A7A7"/>
<path d="M7.16797 12H8.34896V13.2245H7.16797V12Z" fill="#A7A7A7"/>
<path d="M4.76562 12H5.98734V13.2245H4.76562V12Z" fill="#A7A7A7"/>
<path d="M2.40234 12H3.58334V13.2245H2.40234V12Z" fill="#A7A7A7"/>
<path d="M11.9336 14.4082H13.1553V15.5918H11.9336V14.4082Z" fill="#A7A7A7"/>
<path d="M9.57031 14.4082H10.7513V15.5919H9.57031V14.4082Z" fill="#A7A7A7"/>
<path d="M7.16797 14.4082H8.34896V15.5918H7.16797V14.4082Z" fill="#A7A7A7"/>
<path d="M4.76562 14.4082H5.98734V15.5918H4.76562V14.4082Z" fill="#A7A7A7"/>
<path d="M2.40234 14.4082H3.58334V15.5919H2.40234V14.4082Z" fill="#A7A7A7"/>
</svg>
