<svg width="56" height="56" viewBox="0 0 56 56" fill="none" xmlns="http://www.w3.org/2000/svg">
<path d="M41.9987 2.33325H13.9987C7.5657 2.33325 2.33203 7.56692 2.33203 13.9999V32.6666C2.33203 38.2993 6.3477 43.0126 11.6654 44.0976V51.3333C11.6654 52.1943 12.139 52.9853 12.8974 53.3913C13.2427 53.5756 13.6207 53.6666 13.9987 53.6666C14.4514 53.6666 14.9017 53.5336 15.2937 53.2746L28.7057 44.3333H41.9987C48.4317 44.3333 53.6654 39.0996 53.6654 32.6666V13.9999C53.6654 7.56692 48.4317 2.33325 41.9987 2.33325ZM26.7037 40.0586L16.332 46.9723V41.9999C16.332 40.7119 15.2867 39.6666 13.9987 39.6666C10.1394 39.6666 6.9987 36.5259 6.9987 32.6666V13.9999C6.9987 10.1406 10.1394 6.99992 13.9987 6.99992H41.9987C45.858 6.99992 48.9987 10.1406 48.9987 13.9999V32.6666C48.9987 36.5259 45.858 39.6666 41.9987 39.6666H27.9987C27.8354 39.6643 27.602 39.6806 27.336 39.7599C27.056 39.8416 26.8437 39.9629 26.7037 40.0586Z" fill="#E5E5E5"/>
<path d="M41.9974 16.3333H13.9974C12.7094 16.3333 11.6641 17.3786 11.6641 18.6666C11.6641 19.9546 12.7094 20.9999 13.9974 20.9999H41.9974C43.2854 20.9999 44.3307 19.9546 44.3307 18.6666C44.3307 17.3786 43.2854 16.3333 41.9974 16.3333Z" fill="#E5E5E5"/>
<path d="M37.332 25.6665H18.6654C17.3774 25.6665 16.332 26.7118 16.332 27.9998C16.332 29.2878 17.3774 30.3332 18.6654 30.3332H37.332C38.62 30.3332 39.6654 29.2878 39.6654 27.9998C39.6654 26.7118 38.62 25.6665 37.332 25.6665Z" fill="#E5E5E5"/>
</svg>
