<svg width="56" height="56" viewBox="0 0 56 56" fill="none" xmlns="http://www.w3.org/2000/svg">
<path d="M39.7774 0H16.2145C13.961 0 12.1406 1.82749 12.1406 4.08092V51.9244C12.1406 54.1707 13.961 56 16.2145 56H39.7774C42.0273 56 43.8548 54.1725 43.8548 51.9244V4.08092C43.853 1.82749 42.0273 0 39.7774 0ZM40.799 45.3726H15.1965V6.88401H40.799V45.3726ZM33.459 4.14101H22.5347V2.94979H33.4607L33.459 4.14101ZM38.1337 3.59665C38.1337 4.17283 37.6636 4.63942 37.0892 4.63942C36.513 4.63942 36.0447 4.17106 36.0447 3.59665C36.0447 3.02225 36.513 2.55389 37.0892 2.55389C37.6654 2.55212 38.1337 3.02048 38.1337 3.59665ZM32.9694 51.6522H23.0207V48.5911H32.9694V51.6522Z" fill="#E5E5E5"/>
</svg>
