<svg width="56" height="56" viewBox="0 0 56 56" fill="none" xmlns="http://www.w3.org/2000/svg">
<path d="M11.3749 10.9358C12.1449 11.522 12.9359 12.0803 13.7566 12.579C13.3384 13.587 12.9674 14.651 12.6349 15.75H16.0071C16.1996 15.1865 16.3834 14.6143 16.6021 14.0788C18.1649 14.7945 19.7941 15.3405 21.4654 15.75H34.5396C36.2319 15.3387 37.8856 14.7805 39.4606 14.049C39.6794 14.5915 39.8614 15.176 40.0609 15.75H43.3701C43.0394 14.6493 42.6701 13.5888 42.2484 12.579C43.0726 12.0803 43.8654 11.522 44.6284 10.9358C46.0984 12.3673 47.3794 13.986 48.4416 15.75H53.1456C48.5886 6.4435 39.0459 0 28.0016 0C16.9539 0 7.41462 6.4435 2.85938 15.75H7.55988C8.62388 13.986 9.90488 12.3638 11.3749 10.9358ZM42.1889 8.87775C41.7584 9.18575 41.3261 9.4885 40.8764 9.7685C40.3181 8.74125 39.7109 7.7665 39.0546 6.888C40.1606 7.4655 41.2001 8.13925 42.1889 8.87775ZM38.1376 11.2385C36.7236 11.8877 35.2676 12.411 33.7696 12.7785C33.3514 9.7545 32.7476 6.8355 31.8884 4.6025C34.3069 5.82575 36.4489 8.14625 38.1376 11.2385ZM27.6831 4.16325C27.7899 4.1615 27.8931 4.14925 28.0016 4.14925C28.1101 4.14925 28.2134 4.1615 28.3201 4.16325C29.0866 5.418 30.0089 8.5505 30.6896 13.314C29.7989 13.419 28.9029 13.4855 28.0034 13.4855C27.0986 13.4855 26.2044 13.419 25.3171 13.314C25.9944 8.5505 26.9166 5.418 27.6831 4.16325ZM24.0974 4.6515C23.2486 6.8775 22.6501 9.77375 22.2336 12.7802C20.7584 12.4198 19.3269 11.9052 17.9409 11.2752C19.6226 8.211 21.7349 5.8905 24.0974 4.6515ZM16.9451 6.888C16.2906 7.7665 15.6869 8.743 15.1216 9.7685C14.6736 9.49025 14.2414 9.1875 13.8109 8.8795C14.8014 8.13925 15.8391 7.4655 16.9451 6.888Z" fill="#E5E5E5"/>
<path d="M44.6309 45.066C43.8644 44.478 43.0664 43.9215 42.2509 43.4193C42.6657 42.4148 43.0384 41.3507 43.3727 40.25H40.0634C39.8727 40.824 39.6854 41.405 39.4667 41.9493C37.8899 41.2178 36.2327 40.6648 34.5439 40.25H21.4714C19.8002 40.6595 18.1727 41.2072 16.6099 41.9212C16.3877 41.384 16.2057 40.81 16.0114 40.25H12.6409C12.9717 41.3507 13.3427 42.413 13.7609 43.421C12.9384 43.9198 12.1492 44.478 11.3792 45.0625C9.91094 43.6345 8.62994 42.014 7.56944 40.25H2.86719C7.42244 49.553 16.9617 56 28.0077 56C39.0537 56 48.5947 49.553 53.1499 40.25H48.4459C47.3819 42.014 46.1009 43.6345 44.6309 45.066ZM13.8134 47.124C14.2439 46.816 14.6779 46.5115 15.1242 46.235C15.6894 47.2605 16.2932 48.2353 16.9477 49.1138C15.8417 48.5345 14.8039 47.8625 13.8134 47.124ZM17.9399 44.7283C19.3259 44.1053 20.7574 43.5855 22.2327 43.2268C22.6492 46.235 23.2477 49.1208 24.0964 51.3555C21.7374 50.1113 19.6252 47.7873 17.9399 44.7283ZM28.3227 51.8368C28.2159 51.8403 28.1127 51.8507 28.0042 51.8507C27.8957 51.8507 27.7924 51.8403 27.6857 51.8368C26.9192 50.582 25.9952 47.4478 25.3162 42.686C26.2034 42.581 27.0994 42.5127 28.0024 42.5127C28.9072 42.5127 29.8014 42.581 30.6904 42.686C30.0062 47.4478 29.0892 50.582 28.3227 51.8368ZM31.8909 51.3957C32.7502 49.1645 33.3539 46.2455 33.7722 43.2198C35.2702 43.589 36.7262 44.1122 38.1402 44.7615C36.4514 47.8555 34.3094 50.176 31.8909 51.3957ZM39.0572 49.112C39.7134 48.23 40.3207 47.2535 40.8789 46.2315C41.3287 46.5115 41.7609 46.816 42.1914 47.124C41.2027 47.8625 40.1632 48.5345 39.0572 49.112Z" fill="#E5E5E5"/>
<path d="M8.39 33.565L9.50475 29.652C9.8005 28.609 10.028 27.5817 10.2327 26.1922H10.2782C10.5057 27.5572 10.7105 28.5617 10.9835 29.652L12.03 33.565H15.2832L18.6957 22.4437H15.3077L14.3522 26.8555C14.102 28.1312 13.8745 29.3807 13.7152 30.6547H13.6697C13.4422 29.379 13.1465 28.133 12.8507 26.8782L11.736 22.4437H9.006L7.823 27.0147C7.55 28.105 7.2315 29.3825 7.004 30.6547H6.9585C6.7765 29.379 6.549 28.1505 6.3215 26.9902L5.43425 22.4385H1.90625L5.13675 33.5632H8.39V33.565Z" fill="#E5E5E5"/>
<path d="M32.0476 26.8516C31.7938 28.1273 31.5716 29.3768 31.4141 30.6526H31.3668C31.1411 29.3768 30.8436 28.1291 30.5496 26.8743L29.4296 22.4398H26.6996L25.5166 27.0108C25.2436 28.1028 24.9251 29.3786 24.6976 30.6526H24.6521C24.4701 29.3768 24.2426 28.1466 24.0151 26.9863L23.1278 22.4346H19.6016L22.8321 33.5593H26.0853L27.2001 29.6481C27.4958 28.5998 27.7233 27.5761 27.9281 26.1866H27.9736C28.2011 27.5516 28.4076 28.5561 28.6806 29.6481L29.7271 33.5593H32.9803L36.3876 22.4346H32.9961L32.0476 26.8516Z" fill="#E5E5E5"/>
<path d="M49.7503 26.8516C49.4983 28.1273 49.2725 29.3768 49.115 30.6526H49.0713C48.8455 29.3768 48.5463 28.1291 48.2505 26.8743L47.1358 22.4398H44.4023L43.2175 27.0108C42.9463 28.1028 42.626 29.3786 42.3968 30.6526H42.3548C42.1728 29.3768 41.947 28.1466 41.7195 26.9863L40.8305 22.4346H37.3008L40.5365 33.5593H43.7845L44.9045 29.6481C45.1985 28.5998 45.4278 27.5761 45.6325 26.1866H45.6745C45.9003 27.5516 46.105 28.5561 46.378 29.6481L47.4245 33.5593H50.6778L54.0885 22.4346H50.697L49.7503 26.8516Z" fill="#E5E5E5"/>
</svg>
