<svg width="56" height="56" viewBox="0 0 56 56" fill="none" xmlns="http://www.w3.org/2000/svg">
<g clip-path="url(#clip0_60_12887)">
<path d="M54.0275 32.4171C55.6982 18.3541 53.2249 9.47572 48.7635 5.46006L48.7659 5.45772C41.5652 -1.39994 17.2472 -2.41494 8.63254 5.76572C4.76388 9.76739 3.40121 15.6404 3.25188 22.9111C3.10254 30.1841 2.92521 43.8084 15.6209 47.5044H15.6325L15.6209 53.1487C15.6209 53.1487 15.5345 55.4354 16.9952 55.8951C18.6659 56.4364 19.4219 55.3747 24.6182 49.1681C33.3075 49.9217 39.9809 48.1951 40.7392 47.9431C42.4939 47.3551 52.4222 46.0414 54.0275 32.4171ZM25.4745 45.1967C25.4745 45.1967 19.9749 52.0544 18.2645 53.8347C17.7045 54.4134 17.0909 54.3597 17.1002 53.2117C17.1002 52.4581 17.1422 43.8411 17.1422 43.8411C6.37854 40.7564 7.01321 29.1551 7.12988 23.0861C7.24654 17.0147 8.35721 12.0424 11.6332 8.69406C19.1909 1.60772 40.5105 3.19206 45.9425 8.29739C52.5832 14.1844 50.2195 30.8164 50.2335 31.3834C48.8685 42.7561 40.8232 43.4771 39.3439 43.9694C38.7115 44.1794 32.8432 45.6891 25.4745 45.1967Z" fill="#E5E5E5"/>
<path d="M28.5175 10.0264C27.6192 10.0264 27.6192 11.4264 28.5175 11.438C35.4872 11.4917 41.2272 16.3497 41.2902 25.2607C41.2902 26.201 42.6668 26.1894 42.6552 25.249H42.6528C42.5782 15.6474 36.3108 10.08 28.5175 10.0264Z" fill="#E5E5E5"/>
<path d="M37.6849 23.7838C37.6639 24.7124 39.0382 24.7568 39.0499 23.8164C39.1642 18.5221 35.8999 14.1611 29.7655 13.7014C28.8672 13.6361 28.7739 15.0478 29.6699 15.1131C34.9899 15.5168 37.7922 19.1474 37.6849 23.7838Z" fill="#E5E5E5"/>
<path d="M36.2158 29.8059C35.0632 29.1386 33.8895 29.5539 33.4042 30.2096L32.3892 31.5233C31.8735 32.1906 30.9098 32.1019 30.9098 32.1019C23.8772 30.2423 21.9965 22.8829 21.9965 22.8829C21.9965 22.8829 21.9102 21.8866 22.5542 21.3523L23.8235 20.3023C24.4582 19.7983 24.8595 18.5849 24.2132 17.3926C22.4865 14.2729 21.3268 13.1973 20.7365 12.3713C20.1158 11.5943 19.1825 11.4192 18.2118 11.9442H18.1908C16.1725 13.1249 13.9628 15.3346 14.6698 17.6096C15.8762 20.0083 18.0928 27.6546 25.1582 33.4319C28.4785 36.1643 33.7332 38.9643 35.9638 39.6106L35.9848 39.6433C38.1828 40.3759 40.3202 38.0799 41.4612 36.0009V35.9846C41.9675 34.9789 41.7995 34.0269 41.0598 33.4039C39.7485 32.1253 37.7698 30.7136 36.2158 29.8059Z" fill="#E5E5E5"/>
<path d="M30.7272 18.9093C32.9695 19.0399 34.0568 20.2113 34.1735 22.6169C34.2155 23.5573 35.5805 23.4919 35.5385 22.5516C35.3892 19.4109 33.7512 17.6609 30.8018 17.4976C29.9035 17.4439 29.8195 18.8556 30.7272 18.9093Z" fill="#E5E5E5"/>
</g>
<defs>
<clipPath id="clip0_60_12887">
<rect width="56" height="56" fill="white"/>
</clipPath>
</defs>
</svg>
