<svg width="71" height="71" viewBox="0 0 71 71" fill="none" xmlns="http://www.w3.org/2000/svg">
<path d="M34.7393 56.1138H38.982C38.982 56.1138 40.2633 55.972 40.9189 55.2668C41.5209 54.6192 41.502 53.4034 41.502 53.4034C41.502 53.4034 41.4197 47.7097 44.0607 46.8697C46.6661 46.0436 50.0122 52.3729 53.5577 54.8077C56.2394 56.6493 58.2765 56.2457 58.2765 56.2457L67.7586 56.1128C67.7586 56.1128 72.7193 55.8064 70.3669 51.9078C70.1745 51.5885 68.9973 49.0228 63.3165 43.7507C57.371 38.2326 58.1684 39.1251 65.3288 29.5805C69.6905 23.7679 71.434 20.2184 70.8886 18.699C70.3689 17.2511 67.1616 17.6329 67.1616 17.6329L56.4864 17.6994C56.4864 17.6994 55.695 17.5923 55.1078 17.9423C54.5346 18.2855 54.1667 19.0878 54.1667 19.0878C54.1667 19.0878 52.4767 23.5864 50.2235 27.4116C45.47 35.4834 43.5688 35.9109 42.7923 35.409C40.9843 34.2398 41.4356 30.7171 41.4356 28.2119C41.4356 20.388 42.6227 17.1271 39.1248 16.2821C37.9654 16.0015 37.1096 15.817 34.1413 15.7863C30.3319 15.7476 27.1088 15.7982 25.2829 16.6927C24.068 17.2868 23.1308 18.6128 23.7021 18.6891C24.4072 18.7824 26.0049 19.1195 26.8529 20.273C27.9468 21.7616 27.9081 25.1038 27.9081 25.1038C27.9081 25.1038 28.5369 34.3122 26.4403 35.4557C25.0013 36.2401 23.0267 34.6384 18.789 27.3144C16.618 23.5636 14.9787 19.4171 14.9787 19.4171C14.9787 19.4171 14.6623 18.6415 14.098 18.227C13.4137 17.7242 12.4586 17.5655 12.4586 17.5655L2.31401 17.6309C2.31401 17.6309 0.791675 17.6736 0.232328 18.3361C-0.265531 18.9252 0.191666 20.143 0.191666 20.143C0.191666 20.143 8.1336 38.7245 17.1268 48.0886C25.3742 56.6751 34.7373 56.1118 34.7373 56.1118L34.7393 56.1138Z" fill="#E5E5E5"/>
</svg>
