<svg width="56" height="56" viewBox="0 0 56 56" fill="none" xmlns="http://www.w3.org/2000/svg">
<g clip-path="url(#clip0_60_12882)">
<path d="M40.85 33.3831L40.829 33.5581C35.698 31.0007 35.1613 30.6601 34.4987 31.6541C34.039 32.3424 32.6997 33.9034 32.296 34.3654C31.8877 34.8204 31.4817 34.8554 30.7887 34.5404C30.0887 34.1904 27.8417 33.4554 25.1817 31.0754C23.1097 29.2204 21.719 26.9454 21.3083 26.2454C20.6247 25.0647 22.055 24.8967 23.357 22.4327C23.5903 21.9427 23.4713 21.5577 23.2987 21.2101C23.1237 20.8601 21.7307 17.4301 21.1473 16.0627C20.5873 14.7001 20.011 14.8727 19.5793 14.8727C18.2353 14.7561 17.253 14.7747 16.3873 15.6754C12.6213 19.8147 13.571 24.0847 16.7933 28.6254C23.126 36.9134 26.5 38.4394 32.6693 40.5581C34.3353 41.0877 35.8543 41.0131 37.056 40.8404C38.3953 40.6281 41.179 39.1581 41.76 37.5131C42.355 35.8681 42.355 34.5031 42.18 34.1881C42.0073 33.8731 41.55 33.6981 40.85 33.3831Z" fill="#E5E5E5"/>
<path d="M47.88 8.0477C29.939 -9.29597 0.247333 3.28303 0.235667 27.7504C0.235667 32.641 1.51667 37.4104 3.95733 41.622L0 56L14.7817 52.1454C33.2267 62.1087 55.9907 48.8787 56 27.7644C56 20.3537 53.1067 13.3794 47.845 8.1387L47.88 8.0477ZM51.338 27.6874C51.324 45.4977 31.773 56.6207 16.31 47.53L15.47 47.0307L6.72 49.3057L9.065 40.8007L8.50733 39.9257C-1.11533 24.6074 9.94 4.58737 28.168 4.58737C34.3607 4.58737 40.173 7.00237 44.5503 11.3774C48.9253 15.715 51.338 21.5274 51.338 27.6874Z" fill="#E5E5E5"/>
</g>
<defs>
<clipPath id="clip0_60_12882">
<rect width="56" height="56" fill="white"/>
</clipPath>
</defs>
</svg>
