<svg width="14" height="20" viewBox="0 0 14 20" fill="none" xmlns="http://www.w3.org/2000/svg">
<path d="M10.2071 0H3.79038C2.02123 0 0.582031 1.30832 0.582031 2.91668V3.75V15.4167V17.0834C0.582031 18.6917 2.02118 20 3.79038 20H10.207C11.9762 20 13.4154 18.6917 13.4154 17.0834V15.4167V3.75V2.91668C13.4154 1.30832 11.9762 0 10.2071 0ZM10.2071 1.66668C10.4601 1.66668 10.6654 1.85336 10.6654 2.08336C10.6654 2.31336 10.4601 2.5 10.2071 2.5C9.95407 2.5 9.74873 2.31332 9.74873 2.08332C9.74873 1.85332 9.95407 1.66668 10.2071 1.66668ZM5.62373 1.66668H8.37373C8.62673 1.66668 8.83207 1.85336 8.83207 2.08336C8.83207 2.31336 8.62673 2.5 8.37373 2.5H5.62373C5.37073 2.5 5.16538 2.31332 5.16538 2.08332C5.16538 1.85332 5.37073 1.66668 5.62373 1.66668ZM6.99873 18.3333C6.49363 18.3333 6.08207 17.9591 6.08207 17.5C6.08207 17.0408 6.49367 16.6667 6.99873 16.6667C7.50382 16.6667 7.91538 17.0409 7.91538 17.5C7.91538 17.9592 7.50382 18.3333 6.99873 18.3333ZM12.4987 15H1.49873V4.16668H12.4987V15Z" fill="white"/>
</svg>
