<svg width="16" height="16" viewBox="0 0 16 16" fill="none" xmlns="http://www.w3.org/2000/svg">
<g clip-path="url(#clip0_323_20424)">
<path d="M7.99621 11.3223C7.23149 11.3223 6.60938 11.9424 6.60938 12.7042C6.60938 13.4662 7.23149 14.0866 7.99621 14.0866C8.76118 14.0866 9.38329 13.4662 9.38329 12.7042C9.38329 11.9424 8.76105 11.3223 7.99621 11.3223Z" fill="white"/>
<path d="M11.3804 9.43864C10.4775 8.53625 9.27567 8.03906 7.99673 8.03906C6.72271 8.03906 5.52415 8.53297 4.62151 9.42968C4.25694 9.79248 4.25631 10.3836 4.61999 10.747C4.79666 10.9239 5.03188 11.0211 5.28224 11.0211C5.53147 11.0211 5.7658 10.9244 5.94222 10.749C6.49153 10.2031 7.22116 9.90239 7.99673 9.90239C8.7752 9.90239 9.50685 10.205 10.0565 10.7542C10.2332 10.9306 10.4683 11.028 10.7184 11.028C10.9679 11.028 11.2021 10.9314 11.3786 10.7559C11.7437 10.3931 11.7443 9.80232 11.3804 9.43864Z" fill="white"/>
<path d="M15.7269 5.10691C13.6627 3.04776 10.9171 1.91406 7.99658 1.91406C5.07993 1.91406 2.33718 3.04511 0.273581 5.09937C-0.0909834 5.46217 -0.0912358 6.05324 0.273077 6.41667C0.449617 6.59271 0.684458 6.6895 0.934316 6.6895C1.18405 6.6895 1.41864 6.59309 1.59518 6.41718C3.30569 4.71461 5.57902 3.77676 7.99658 3.77676C10.4177 3.77676 12.6933 4.71651 14.4042 6.42361C14.5807 6.59977 14.8159 6.69694 15.0657 6.69694C15.3153 6.69694 15.5498 6.60003 15.7263 6.42437C16.091 6.06129 16.0913 5.46999 15.7269 5.10691Z" fill="white"/>
<path d="M13.4969 7.32691C12.0275 5.86095 10.0736 5.05371 7.99499 5.05371C5.92016 5.05371 3.96913 5.85843 2.50103 7.31921C2.32423 7.49499 2.22694 7.72883 2.22656 7.9778C2.22656 8.22652 2.32348 8.46061 2.50002 8.63664C2.67656 8.8128 2.91153 8.90997 3.16138 8.90997C3.41086 8.90997 3.64545 8.81306 3.82224 8.63765C4.93752 7.52806 6.4195 6.91679 7.99499 6.91679C9.57376 6.91679 11.0578 7.5302 12.1738 8.64358C12.3506 8.82 12.5854 8.91716 12.8354 8.91716C13.085 8.91716 13.3197 8.82025 13.496 8.64459C13.6726 8.46881 13.7701 8.23498 13.7702 7.986C13.7705 7.73703 13.6733 7.5032 13.4969 7.32691Z" fill="white"/>
</g>
<defs>
<clipPath id="clip0_323_20424">
<rect width="16" height="16" fill="white"/>
</clipPath>
</defs>
</svg>
